<?xml version="1.0" standalone="no"?>
<!DOCTYPE svg PUBLIC "-//W3C//DTD SVG 20010904//EN"
 "http://www.w3.org/TR/2001/REC-SVG-20010904/DTD/svg10.dtd">
<svg version="1.0" xmlns="http://www.w3.org/2000/svg"
 width="583.000000pt" height="133.000000pt" viewBox="0 0 583.000000 133.000000"
 preserveAspectRatio="xMidYMid meet">
<metadata>
Created by potrace 1.15, written by Peter Selinger 2001-2017
</metadata>
<g transform="translate(0.000000,133.000000) scale(0.100000,-0.100000)"
fill="#000000" stroke="none">
<path d="M650 1220 l0 -110 175 -2 176 -3 -186 -289 c-102 -159 -185 -295
-185 -302 0 -8 8 -29 17 -49 l17 -35 338 0 338 0 0 105 0 105 -175 0 c-96 0
-175 2 -175 5 0 3 83 138 185 301 102 163 185 301 185 307 0 7 -9 27 -20 45
l-20 32 -335 0 -335 0 0 -110z"/>
<path d="M1522 887 c-84 -243 -152 -445 -152 -449 0 -5 56 -8 125 -8 l125 0
27 90 28 91 114 -3 114 -3 30 -87 29 -88 124 0 c68 0 124 3 124 8 0 4 -70 206
-157 450 l-157 442 -110 0 -111 0 -153 -443z"/>
<path d="M2270 880 l0 -450 115 0 115 0 0 141 c0 134 1 140 20 137 11 -2 58
-57 118 -138 l98 -135 152 -3 152 -3 -121 152 -121 152 28 15 c74 37 116 100
134 202 31 171 -35 307 -174 359 -52 19 -77 21 -286 21 l-230 0 0 -450z m429
204 c26 -21 31 -33 31 -69 0 -75 -49 -105 -177 -105 l-53 0 0 100 0 100 84 0
c76 0 87 -3 115 -26z"/>
<path d="M3090 880 l0 -450 115 0 115 0 0 450 0 450 -115 0 -115 0 0 -450z"/>
<path d="M3460 880 l0 -450 116 0 116 0 -4 228 c-2 125 -8 236 -12 247 -4 11
21 -36 56 -105 36 -69 96 -179 134 -245 l70 -120 122 -3 122 -3 0 451 0 450
-116 0 -116 0 4 -254 c2 -140 2 -253 1 -252 -1 1 -15 31 -30 67 -15 36 -75
149 -133 252 l-105 187 -112 0 -113 0 0 -450z"/>
<path d="M4382 887 c-84 -243 -152 -445 -152 -449 0 -5 56 -8 125 -8 l125 0
27 90 28 91 114 -3 114 -3 30 -87 29 -88 124 0 c68 0 124 3 124 8 0 4 -70 206
-157 450 l-157 442 -110 0 -111 0 -153 -443z"/>
<path d="M2900 280 l0 -40 45 0 45 0 0 -120 0 -120 40 0 40 0 0 120 0 120 45
0 45 0 0 40 0 40 -130 0 -130 0 0 -40z"/>
<path d="M3180 160 l0 -160 40 0 40 0 0 60 0 60 45 0 45 0 0 -60 0 -60 40 0
40 0 0 160 0 160 -40 0 -40 0 0 -60 0 -60 -45 0 -45 0 0 60 0 60 -40 0 -40 0
0 -160z"/>
<path d="M3480 160 l0 -160 110 0 110 0 0 40 0 40 -70 0 c-63 0 -70 2 -70 20
0 18 7 20 65 20 l65 0 0 35 0 35 -65 0 c-63 0 -65 1 -65 25 0 24 2 25 70 25
l70 0 0 40 0 40 -110 0 -110 0 0 -160z"/>
<path d="M3868 304 c-15 -8 -32 -23 -38 -34 -13 -24 -13 -196 0 -221 16 -29
64 -49 121 -49 45 0 55 4 85 34 31 31 34 40 34 90 l0 56 -65 0 -65 0 0 -35 c0
-31 3 -35 28 -35 l27 -1 -24 -20 c-21 -17 -26 -18 -45 -6 -17 12 -22 26 -24
75 -3 53 0 62 20 76 19 14 25 14 44 1 28 -18 84 0 84 27 0 47 -122 75 -182 42z"/>
<path d="M4154 268 c-9 -29 -34 -101 -55 -161 l-38 -107 50 0 c47 0 50 1 56
30 5 27 9 30 45 30 34 0 40 -4 49 -30 10 -27 15 -30 55 -30 24 0 44 3 44 7 0
3 -24 75 -52 160 l-53 153 -42 0 c-41 0 -41 0 -59 -52z"/>
<path d="M4370 160 l0 -160 40 0 39 0 3 62 3 63 14 -42 c13 -38 18 -43 46 -43
27 0 33 5 47 42 l17 43 0 -62 1 -63 40 0 40 0 0 160 0 160 -45 0 c-29 0 -45
-4 -46 -12 0 -7 -13 -40 -28 -73 l-27 -60 -29 73 -28 72 -44 0 -43 0 0 -160z"/>
<path d="M4710 160 l0 -160 110 0 110 0 0 40 0 40 -70 0 c-63 0 -70 2 -70 20
0 18 7 20 65 20 l65 0 0 35 0 35 -65 0 c-63 0 -65 1 -65 25 0 24 2 25 70 25
l70 0 0 40 0 40 -110 0 -110 0 0 -160z"/>
</g>
</svg>
